<?xml version="1.0" encoding="UTF-8"?>
<svg version="1.1" xmlns="http://www.w3.org/2000/svg" width="512" height="512">
<path d="M0 0 C0.89115509 -0.00974854 1.78231018 -0.01949707 2.70046997 -0.02954102 C22.63293108 -0.20264286 41.86559565 0.06369901 61.4453125 4.23828125 C62.77079102 4.51115967 62.77079102 4.51115967 64.12304688 4.78955078 C105.34784078 13.49342708 143.65278781 33.55407357 174.4453125 62.23828125 C175.83675916 63.45166344 177.23239889 64.66025928 178.6328125 65.86328125 C185.12642006 71.55168147 190.72060083 77.62806502 196.12890625 84.36328125 C197.62026628 86.21427785 199.13192996 88.04918974 200.66796875 89.86328125 C211.37655764 102.55494215 219.73850793 116.5738543 227.4453125 131.23828125 C227.79303711 131.88893555 228.14076172 132.53958984 228.49902344 133.20996094 C239.66788692 154.35997462 246.75126165 178.69014258 250.4453125 202.23828125 C250.62787598 203.39384521 250.81043945 204.54940918 250.99853516 205.73999023 C252.59886637 217.00999862 252.84447883 228.17905615 252.8203125 239.55078125 C252.81949677 240.99969254 252.81949677 240.99969254 252.81866455 242.47787476 C252.75654087 266.55129834 249.41615617 289.15610162 242.4453125 312.23828125 C242.19442871 313.07343262 241.94354492 313.90858398 241.68505859 314.76904297 C231.64027637 347.38390177 213.65619439 377.32137709 190.4453125 402.23828125 C189.23193031 403.62972791 188.02333447 405.02536764 186.8203125 406.42578125 C181.13191228 412.91938881 175.05552873 418.51356958 168.3203125 423.921875 C166.4693159 425.41323503 164.63440401 426.92489871 162.8203125 428.4609375 C150.1286516 439.16952639 136.10973945 447.53147668 121.4453125 455.23828125 C120.7946582 455.58600586 120.14400391 455.93373047 119.47363281 456.29199219 C98.32361913 467.46085567 73.99345117 474.5442304 50.4453125 478.23828125 C49.28974854 478.42084473 48.13418457 478.6034082 46.94360352 478.79150391 C35.67359513 480.39183512 24.5045376 480.63744758 13.1328125 480.61328125 C12.16687164 480.61273743 11.20093079 480.6121936 10.20571899 480.6116333 C-5.69146444 480.57060916 -20.9742443 479.64585488 -36.5546875 476.23828125 C-37.54082031 476.02397461 -38.52695313 475.80966797 -39.54296875 475.58886719 C-80.68601851 466.32763679 -118.66455293 447.01341561 -149.5546875 418.23828125 C-150.94613416 417.02489906 -152.34177389 415.81630322 -153.7421875 414.61328125 C-160.2414509 408.91992651 -165.84238567 402.83961232 -171.25 396.09375 C-172.69580225 394.30242552 -174.16644909 392.53057919 -175.671875 390.7890625 C-207.31744649 353.8692291 -227.34870952 301.35876015 -227.79296875 252.68359375 C-227.8027626 251.79257462 -227.81255646 250.90155548 -227.82264709 249.98353577 C-228.06977464 221.65429212 -225.7888597 195.50365266 -217.5546875 168.23828125 C-217.17836182 166.9855542 -217.17836182 166.9855542 -216.79443359 165.70751953 C-203.42490392 122.29738749 -175.36083111 81.26686088 -139.5546875 53.23828125 C-138.56984375 52.44808594 -137.585 51.65789062 -136.5703125 50.84375 C-98.53859031 20.59941859 -48.96468094 0.44659656 0 0 Z M-48.375 127.41015625 C-52.58778961 133.93858518 -53.69476255 140.37085122 -53.6171875 148.05078125 C-53.5965625 150.09265625 -53.5759375 152.13453125 -53.5546875 154.23828125 C-45.9646875 154.23828125 -38.3746875 154.23828125 -30.5546875 154.23828125 C-30.5546875 149.61828125 -30.5546875 144.99828125 -30.5546875 140.23828125 C-2.1746875 140.23828125 26.2053125 140.23828125 55.4453125 140.23828125 C55.4453125 144.85828125 55.4453125 149.47828125 55.4453125 154.23828125 C63.0353125 154.23828125 70.6253125 154.23828125 78.4453125 154.23828125 C78.80156358 143.07574739 78.43706022 133.93965218 71.1953125 124.99609375 C64.87870984 118.65129197 58.5516204 117.09003183 49.81811523 117.04541016 C48.93641159 117.03723267 48.05470795 117.02905518 47.14628601 117.02062988 C44.22383295 116.99578913 41.30142857 116.97925963 38.37890625 116.96484375 C37.37914324 116.95952007 36.37938023 116.9541964 35.34932137 116.9487114 C30.05344535 116.92198043 24.75759286 116.90260881 19.46166992 116.88818359 C15.08808377 116.87486558 10.71496652 116.84705213 6.34155273 116.80615234 C1.0536389 116.75670259 -4.23385084 116.7320468 -9.52198601 116.72495651 C-11.53172368 116.71826352 -13.54145263 116.70309264 -15.55105782 116.6790657 C-34.12919787 116.41379908 -34.12919787 116.41379908 -48.375 127.41015625 Z M-125.27758789 173.1574707 C-127.23751846 177.88550815 -127.00234315 182.46151203 -126.98828125 187.53125 C-126.9935231 188.63245682 -126.99876495 189.73366364 -127.00416565 190.86824036 C-127.01058323 193.19738931 -127.0092523 195.52657068 -127.00073242 197.85571289 C-126.99225892 201.39594323 -127.0209307 204.93453983 -127.05273438 208.47460938 C-127.05434758 210.7434891 -127.05376658 213.01237166 -127.05078125 215.28125 C-127.06201523 216.32951462 -127.07324921 217.37777924 -127.08482361 218.45780945 C-126.98961914 228.64877579 -124.07334357 236.66849544 -117.0078125 244.07421875 C-99.663103 259.3751249 -75.52529737 263.18866958 -53.4296875 266.55078125 C-51.7597876 266.80807007 -51.7597876 266.80807007 -50.05615234 267.07055664 C-43.1744855 268.05976403 -36.50430925 268.44932325 -29.5546875 268.23828125 C-29.5453418 267.55314453 -29.53599609 266.86800781 -29.52636719 266.16210938 C-29.4722684 263.0201369 -29.38869926 259.87959058 -29.3046875 256.73828125 C-29.29050781 255.660625 -29.27632813 254.58296875 -29.26171875 253.47265625 C-29.02001466 245.5447622 -28.02351762 239.61816701 -22.1171875 233.86328125 C-17.80509983 231.12878663 -14.26330409 229.98988109 -9.15698242 229.94775391 C-7.5746003 229.92861435 -7.5746003 229.92861435 -5.96025085 229.90908813 C-4.82996964 229.90686249 -3.69968842 229.90463684 -2.53515625 229.90234375 C-1.36261795 229.89568695 -0.19007965 229.88903015 1.01799011 229.88217163 C3.49675937 229.87205517 5.97555582 229.8673543 8.4543457 229.86767578 C12.23369603 229.86330911 16.01187229 229.82699433 19.79101562 229.7890625 C22.20312102 229.78319278 24.61523195 229.77922443 27.02734375 229.77734375 C28.15155228 229.76297272 29.2757608 229.74860168 30.43403625 229.73379517 C37.24640209 229.77317803 41.64804835 230.58776336 47.4453125 234.23828125 C52.01045805 238.92356221 53.65177411 243.50633469 53.859375 249.9765625 C53.89804687 251.04326172 53.93671875 252.10996094 53.9765625 253.20898438 C54.02296875 254.86317383 54.02296875 254.86317383 54.0703125 256.55078125 C54.10898437 257.67291016 54.14765625 258.79503906 54.1875 259.95117188 C54.28153261 262.71337977 54.36718591 265.47558525 54.4453125 268.23828125 C83.02603523 269.18423445 120.53830243 262.8112111 142.4453125 243.23828125 C150.27962779 235.00061507 151.90707456 226.51525186 151.84375 215.4765625 C151.84662018 214.36774216 151.84949036 213.25892181 151.85244751 212.11650085 C151.85448039 209.78428636 151.84900514 207.45205451 151.83642578 205.11987305 C151.8203159 201.55153424 151.83632522 197.9843202 151.85546875 194.41601562 C151.85348708 192.14452876 151.84964498 189.87304258 151.84375 187.6015625 C151.85285904 186.00457268 151.85285904 186.00457268 151.8621521 184.37532043 C151.91240076 177.25319399 151.91240076 177.25319399 148.4453125 171.23828125 C145.48250378 169.4412188 143.28525809 168.98799981 139.84130859 168.98659897 C138.91619476 168.98138347 137.99108093 168.97616798 137.03793335 168.97079444 C136.02510284 168.97525588 135.01227234 168.97971733 133.96875 168.98431396 C132.35077011 168.97963399 132.35077011 168.97963399 130.70010376 168.97485948 C127.07345164 168.96686057 123.44696597 168.97321057 119.8203125 168.97949219 C117.22525942 168.97678317 114.6302071 168.97322274 112.03515625 168.96887207 C105.71100242 168.95997177 99.38689602 168.96190291 93.06274033 168.96769735 C87.92365886 168.97221133 82.78459069 168.97282789 77.64550781 168.97064972 C76.9145093 168.97034325 76.18351078 168.97003679 75.43036079 168.96972103 C73.94542185 168.96908159 72.46048291 168.96843317 70.97554398 168.96777585 C57.04630403 168.96207069 43.1170904 168.96863336 29.18785477 168.97937658 C17.23199417 168.98831227 5.2761724 168.98676028 -6.6796875 168.97753906 C-20.55856974 168.96683971 -34.43742891 168.96262003 -48.3163147 168.96876359 C-49.7958374 168.9694007 -51.2753601 168.97002944 -52.75488281 168.97064972 C-53.48286512 168.97095827 -54.21084743 168.97126682 -54.96088982 168.97158472 C-60.0947004 168.97331267 -65.22849637 168.97039441 -70.36230469 168.96569061 C-77.27004686 168.95950068 -84.17771431 168.96389812 -91.08544922 168.97547913 C-93.62516152 168.97813037 -96.16487997 168.97735275 -98.70458984 168.9729538 C-102.16251932 168.9675153 -105.62021082 168.97431202 -109.078125 168.98431396 C-110.09095551 168.97985252 -111.10378601 168.97539108 -112.14730835 168.97079444 C-113.5349791 168.97861768 -113.5349791 168.97861768 -114.95068359 168.98659897 C-115.74896576 168.98692367 -116.54724792 168.98724838 -117.36972046 168.98758292 C-120.85999951 169.38804989 -122.94597602 170.56021962 -125.27758789 173.1574707 Z M-13.3241272 245.46884155 C-14.91612346 247.75799502 -14.93494936 249.15947892 -14.94287109 251.9375 C-14.95232758 252.88858643 -14.96178406 253.83967285 -14.9715271 254.81958008 C-14.96545441 255.84462646 -14.95938171 256.86967285 -14.953125 257.92578125 C-14.95599518 258.97983154 -14.95886536 260.03388184 -14.96182251 261.11987305 C-14.96386463 263.34912656 -14.95832448 265.57839792 -14.94580078 267.80761719 C-14.92974981 271.22501593 -14.94564509 274.6412319 -14.96484375 278.05859375 C-14.96286135 280.22265887 -14.95901773 282.38672325 -14.953125 284.55078125 C-14.95919769 285.57582764 -14.96527039 286.60087402 -14.9715271 287.65698242 C-14.96207062 288.60806885 -14.95261414 289.55915527 -14.94287109 290.5390625 C-14.94048431 291.37606689 -14.93809753 292.21307129 -14.93563843 293.07543945 C-14.70135896 295.29154963 -14.70135896 295.29154963 -13.3241272 297.00772095 C-11.03497373 298.59971721 -9.63348983 298.61854311 -6.85546875 298.62646484 C-5.90438232 298.63592133 -4.9532959 298.64537781 -3.97338867 298.65512085 C-2.94834229 298.64904816 -1.9232959 298.64297546 -0.8671875 298.63671875 C0.18686279 298.63958893 1.24091309 298.64245911 2.3269043 298.64541626 C4.55615781 298.64745838 6.78542917 298.64191823 9.01464844 298.62939453 C12.43204718 298.61334356 15.84826315 298.62923884 19.265625 298.6484375 C21.42969012 298.6464551 23.5937545 298.64261148 25.7578125 298.63671875 C26.78285889 298.64279144 27.80790527 298.64886414 28.86401367 298.65512085 C30.29064331 298.64093613 30.29064331 298.64093613 31.74609375 298.62646484 C32.58309814 298.62407806 33.42010254 298.62169128 34.2824707 298.61923218 C36.49858088 298.38495271 36.49858088 298.38495271 38.2147522 297.00772095 C39.80674846 294.71856748 39.82557436 293.31708358 39.83349609 290.5390625 C39.84295258 289.58797607 39.85240906 288.63688965 39.8621521 287.65698242 C39.85607941 286.63193604 39.85000671 285.60688965 39.84375 284.55078125 C39.84805527 282.96970581 39.84805527 282.96970581 39.85244751 281.35668945 C39.85448963 279.12743594 39.84894948 276.89816458 39.83642578 274.66894531 C39.82037481 271.25154657 39.83627009 267.8353306 39.85546875 264.41796875 C39.85348635 262.25390363 39.84964273 260.08983925 39.84375 257.92578125 C39.84982269 256.90073486 39.85589539 255.87568848 39.8621521 254.81958008 C39.85269562 253.86849365 39.84323914 252.91740723 39.83349609 251.9375 C39.82991592 250.68199341 39.82991592 250.68199341 39.82626343 249.40112305 C39.59198396 247.18501287 39.59198396 247.18501287 38.2147522 245.46884155 C35.92559873 243.87684529 34.52411483 243.85801939 31.74609375 243.85009766 C30.79500732 243.84064117 29.8439209 243.83118469 28.86401367 243.82144165 C27.83896729 243.82751434 26.8139209 243.83358704 25.7578125 243.83984375 C24.70376221 243.83697357 23.64971191 243.83410339 22.5637207 243.83114624 C20.33446719 243.82910412 18.10519583 243.83464427 15.87597656 243.84716797 C12.45857782 243.86321894 9.04236185 243.84732366 5.625 243.828125 C3.46093488 243.8301074 1.2968705 243.83395102 -0.8671875 243.83984375 C-1.89223389 243.83377106 -2.91728027 243.82769836 -3.97338867 243.82144165 C-5.40001831 243.83562637 -5.40001831 243.83562637 -6.85546875 243.85009766 C-7.69247314 243.85248444 -8.52947754 243.85487122 -9.3918457 243.85733032 C-11.60795588 244.09160979 -11.60795588 244.09160979 -13.3241272 245.46884155 Z M-113.5546875 265.23828125 C-113.6242438 276.08685539 -113.67752744 286.93537635 -113.71012402 297.78412819 C-113.72576992 302.82182322 -113.74698868 307.85936552 -113.78100586 312.89697266 C-113.81363748 317.75990675 -113.83154861 322.62269407 -113.83931923 327.48572922 C-113.8448559 329.33965744 -113.85566769 331.19357777 -113.87187767 333.04744339 C-113.89370251 335.64720171 -113.89665232 338.24635599 -113.89526367 340.84619141 C-113.9060495 341.61008179 -113.91683533 342.37397217 -113.927948 343.16101074 C-113.89440181 348.97740425 -112.59465027 353.04614383 -108.6171875 357.3203125 C-107.9365625 357.89136719 -107.2559375 358.46242188 -106.5546875 359.05078125 C-105.8740625 359.63472656 -105.1934375 360.21867187 -104.4921875 360.8203125 C-100.27341308 363.90784297 -95.72176324 363.38375951 -90.73039246 363.37872314 C-89.36082404 363.38317983 -89.36082404 363.38317983 -87.96358758 363.38772655 C-84.8913246 363.39642711 -81.81910052 363.39792294 -78.74682617 363.39941406 C-76.54924943 363.40404126 -74.3516735 363.40906578 -72.15409851 363.41445923 C-66.17472545 363.42759432 -60.19536362 363.4340303 -54.21597838 363.43846989 C-50.48228984 363.44139869 -46.74860437 363.44550312 -43.01491737 363.44997406 C-31.33880367 363.46365163 -19.66269642 363.47333308 -7.98657531 363.47717595 C-6.64266153 363.47761942 -5.29874776 363.47806598 -3.95483398 363.47851562 C-3.28820664 363.47873705 -2.6215793 363.47895848 -1.93475113 363.47918662 C8.86660164 363.4831345 19.66788694 363.50058833 30.46921364 363.52387515 C41.55927985 363.54759143 52.64931797 363.55979316 63.73941058 363.56121707 C69.96589369 363.56226637 76.19228164 363.56820081 82.41874123 363.58603668 C88.27508595 363.60248571 94.13126366 363.60468823 99.98762321 363.59589767 C102.13787406 363.59512561 104.28813376 363.59949216 106.43836212 363.60935593 C109.37246367 363.62202689 112.30596941 363.61622487 115.24006653 363.60577393 C116.09211554 363.61383033 116.94416455 363.62188673 117.82203323 363.63018727 C123.77658452 363.58054062 128.0292835 362.48659342 132.52734375 358.30078125 C133.09839844 357.62015625 133.66945313 356.93953125 134.2578125 356.23828125 C134.84175781 355.55765625 135.42570313 354.87703125 136.02734375 354.17578125 C138.98162194 350.13908158 138.58100193 345.96246639 138.55883789 341.18676758 C138.55905693 339.95716057 138.55905693 339.95716057 138.5592804 338.70271301 C138.55858346 335.99188597 138.55080128 333.28112755 138.54296875 330.5703125 C138.54110379 328.69129982 138.53968026 326.81228665 138.53868103 324.93327332 C138.53486198 319.9865281 138.52503688 315.03981223 138.51397705 310.09307861 C138.5037498 305.0457804 138.49918059 299.99847746 138.49414062 294.95117188 C138.48341409 285.04686211 138.46634498 275.14257412 138.4453125 265.23828125 C137.02787431 265.70788724 135.6106873 266.17825143 134.19360352 266.64892578 C133.40438004 266.91077667 132.61515656 267.17262756 131.80201721 267.44241333 C129.68181748 268.15841264 127.575527 268.9028447 125.47265625 269.66796875 C102.48397638 277.89087518 78.57593853 280.61567726 54.4453125 283.23828125 C54.36748535 284.78092651 54.36748535 284.78092651 54.28808594 286.35473633 C54.21067164 287.71828364 54.13285069 289.08180791 54.0546875 290.4453125 C54.02165527 291.12146606 53.98862305 291.79761963 53.95458984 292.4942627 C53.54209955 299.40768426 51.94425758 303.86428343 46.9453125 308.61328125 C42.75546488 311.3366822 40.03750778 312.48870369 34.97753906 312.54467773 C33.33498138 312.56865883 33.33498138 312.56865883 31.65924072 312.59312439 C30.48005066 312.59848709 29.3008606 312.60384979 28.0859375 312.609375 C26.86759216 312.61840347 25.64924683 312.62743195 24.39398193 312.63673401 C21.81508849 312.65124361 19.23615818 312.660125 16.65722656 312.66381836 C12.72397248 312.67569471 8.79229709 312.7248611 4.859375 312.77539062 C2.35157014 312.78485725 -0.15624434 312.79209114 -2.6640625 312.796875 C-3.83515564 312.81640732 -5.00624878 312.83593964 -6.21282959 312.85606384 C-13.22416562 312.81759221 -18.22567057 312.02718079 -23.5546875 307.23828125 C-27.82284787 301.76628078 -28.73179405 297.31727931 -29.1171875 290.55078125 C-29.16037109 289.84888672 -29.20355469 289.14699219 -29.24804688 288.42382812 C-29.3538611 286.69552919 -29.45475331 284.96693015 -29.5546875 283.23828125 C-30.42867188 283.14329346 -31.30265625 283.04830566 -32.203125 282.95043945 C-57.30311086 280.17964044 -81.44993715 276.64287904 -105.32666016 268.02856445 C-108.05687709 267.06015417 -110.80566569 266.15176259 -113.5546875 265.23828125 Z " fill="#006B95" transform="translate(243.5546875,15.76171875)"/>
</svg>
